<svg xmlns="http://www.w3.org/2000/svg" viewBox="0 0 231.53 231.53"><defs><style>.cls-1{fill:#3e4d96;}.cls-2{fill:#fff;}.cls-3{fill:#de9f30;}.cls-4{fill:#c2c6e2;}</style></defs><title>riojatech-fondo</title><g id="Capa_2" data-name="Capa 2"><g id="Capa_1-2" data-name="Capa 1"><rect class="cls-1" width="231.53" height="231.53"/><path class="cls-2" d="M62.33,102.76v10.16a13.71,13.71,0,0,1-1.89.32,19.8,19.8,0,0,1-2.54.16,12,12,0,0,1-2.21-.18,3.85,3.85,0,0,1-1.59-.67,2.86,2.86,0,0,1-1-1.32,6.19,6.19,0,0,1-.33-2.22V84.09a2.26,2.26,0,0,1,.63-1.72,4.37,4.37,0,0,1,1.72-1,20.41,20.41,0,0,1,4.32-.93,45.65,45.65,0,0,1,5.25-.29q7.55,0,11.37,3.07a10.07,10.07,0,0,1,3.82,8.31,9.08,9.08,0,0,1-1.75,5.61A12.32,12.32,0,0,1,74,100.75c1.31,1.73,2.6,3.36,3.88,4.87a31.65,31.65,0,0,1,3,4.13,5,5,0,0,1-2,2.83,5.68,5.68,0,0,1-3.25,1,7.47,7.47,0,0,1-2.08-.26,5.2,5.2,0,0,1-1.53-.75,5.71,5.71,0,0,1-1.2-1.16,15,15,0,0,1-1-1.48l-4.59-7.15Zm3.44-7a4.85,4.85,0,0,0,3.28-1,3.75,3.75,0,0,0,1.21-3,3.61,3.61,0,0,0-1.34-3,7,7,0,0,0-4.24-1c-.55,0-1,0-1.31,0s-.69.09-1.09.16v7.94Z"/><path class="cls-2" d="M92.53,112.92a13.79,13.79,0,0,1-1.88.32,20,20,0,0,1-2.54.16,12.16,12.16,0,0,1-2.22-.18,4.06,4.06,0,0,1-1.61-.67,2.79,2.79,0,0,1-1-1.32A6.44,6.44,0,0,1,83,109V81.07c.4-.07,1-.17,1.91-.29a17,17,0,0,1,2.51-.19,11.27,11.27,0,0,1,2.22.19,3.91,3.91,0,0,1,1.61.66,2.89,2.89,0,0,1,1,1.32A6.52,6.52,0,0,1,92.53,85Z"/><path class="cls-2" d="M94.44,97.05a18.68,18.68,0,0,1,1.34-7.3,15.19,15.19,0,0,1,3.67-5.32,15.82,15.82,0,0,1,5.46-3.26,21.45,21.45,0,0,1,13.62,0A16.14,16.14,0,0,1,124,84.43a14.85,14.85,0,0,1,3.69,5.32,18.68,18.68,0,0,1,1.34,7.3,19.32,19.32,0,0,1-1.31,7.33,14.86,14.86,0,0,1-3.64,5.34,15.62,15.62,0,0,1-5.49,3.26,20.74,20.74,0,0,1-6.89,1.11,20.2,20.2,0,0,1-6.89-1.14,15.55,15.55,0,0,1-5.47-3.31,15.07,15.07,0,0,1-3.6-5.34A18.75,18.75,0,0,1,94.44,97.05Zm9.84,0q0,4.82,2,7.2a7.41,7.41,0,0,0,10.88,0c1.34-1.59,2-4,2-7.2s-.67-5.56-2-7.14a6.72,6.72,0,0,0-5.44-2.39,6.86,6.86,0,0,0-5.44,2.36C105,91.45,104.28,93.84,104.28,97.05Z"/><path class="cls-2" d="M135.77,81.07c.4-.07,1-.17,1.91-.29a17.23,17.23,0,0,1,2.52-.19,11.1,11.1,0,0,1,2.21.19,4,4,0,0,1,1.62.66,3,3,0,0,1,1,1.32,6.26,6.26,0,0,1,.33,2.22v19.58q0,4.71-2.79,7.07t-8.2,2.35a10.63,10.63,0,0,1-4.59-.84,3.91,3.91,0,0,1-1.83-1.59,4.44,4.44,0,0,1-.58-2.28,5.24,5.24,0,0,1,.3-1.85,3.94,3.94,0,0,1,.74-1.27c.69.14,1.29.24,1.78.29a13.44,13.44,0,0,0,1.61.08,3.94,3.94,0,0,0,3.06-1,4.41,4.41,0,0,0,.93-3Z"/><path class="cls-2" d="M155.78,82a11.55,11.55,0,0,1,2.81-1,15.4,15.4,0,0,1,3.8-.48,14.12,14.12,0,0,1,4.84.77,4.19,4.19,0,0,1,2.71,2.4c.65,1.84,1.36,4,2.13,6.41s1.53,4.95,2.29,7.54,1.52,5.15,2.24,7.67,1.37,4.76,1.92,6.7a4.56,4.56,0,0,1-2,1.19,9.61,9.61,0,0,1-3.12.45,9.86,9.86,0,0,1-2.21-.22,4.11,4.11,0,0,1-1.48-.63,3.18,3.18,0,0,1-.93-1.11,10,10,0,0,1-.62-1.59l-1-3.65h-9.89c-.29,1.06-.59,2.15-.88,3.28s-.58,2.22-.87,3.28a13.09,13.09,0,0,1-1.61.45,10,10,0,0,1-2,.19,7.31,7.31,0,0,1-4.13-.93,2.94,2.94,0,0,1-1.34-2.57,5.11,5.11,0,0,1,.22-1.48c.14-.49.31-1.07.49-1.74.25-1,.61-2.14,1.07-3.55s.95-2.94,1.5-4.58,1.13-3.32,1.75-5l1.75-4.9c.54-1.53,1-2.9,1.5-4.1S155.52,82.66,155.78,82Zm6.56,6.83q-.76,2.22-1.73,5c-.63,1.81-1.21,3.66-1.72,5.53h6.78q-.76-2.86-1.56-5.59c-.53-1.81-1-3.45-1.45-4.89Z"/><path class="cls-2" d="M53.42,126.29a6.66,6.66,0,0,1-.71-1.59,6.77,6.77,0,0,1-.33-2.12,3.91,3.91,0,0,1,1-3,3.48,3.48,0,0,1,2.49-.9H79.66a7.09,7.09,0,0,1,.71,1.59,6.7,6.7,0,0,1,.33,2.11,3.92,3.92,0,0,1-1,3,3.49,3.49,0,0,1-2.49.9H71.19v24.44a15.83,15.83,0,0,1-1.89.32,19.91,19.91,0,0,1-2.54.16,11.27,11.27,0,0,1-2.22-.19,4,4,0,0,1-1.61-.66A2.82,2.82,0,0,1,62,149a6.19,6.19,0,0,1-.33-2.22V126.29Z"/><path class="cls-2" d="M83.56,123.8a4.78,4.78,0,0,1,1.37-3.6,5.13,5.13,0,0,1,3.72-1.32h18a6.5,6.5,0,0,1,.68,1.53,6.7,6.7,0,0,1,.3,2,3.8,3.8,0,0,1-.9,2.86,3.35,3.35,0,0,1-2.38.85H92.86v4.92h12.3a6.51,6.51,0,0,1,.68,1.51,6.37,6.37,0,0,1,.3,2,3.9,3.9,0,0,1-.87,2.86,3.27,3.27,0,0,1-2.35.84H92.86v5.56h14a6.41,6.41,0,0,1,.68,1.54,6.6,6.6,0,0,1,.3,2,3.88,3.88,0,0,1-.9,2.88,3.27,3.27,0,0,1-2.38.87h-16a5.13,5.13,0,0,1-3.72-1.32,4.78,4.78,0,0,1-1.37-3.6Z"/><path class="cls-2" d="M130,125.33a8.22,8.22,0,0,0-6.45,2.49c-1.5,1.66-2.24,4-2.24,7s.82,5.43,2.48,7.09a9,9,0,0,0,6.7,2.49,10.87,10.87,0,0,0,3.8-.59,24.25,24.25,0,0,0,3-1.32,5.46,5.46,0,0,1,1.45,1.77,5.38,5.38,0,0,1,.52,2.41c0,1.45-.83,2.67-2.49,3.68s-4.18,1.51-7.57,1.51a23.05,23.05,0,0,1-6.89-1,15.51,15.51,0,0,1-5.63-3.09,14.7,14.7,0,0,1-3.8-5.3,19,19,0,0,1-1.39-7.64,18.36,18.36,0,0,1,1.34-7.28,15.4,15.4,0,0,1,3.66-5.32,15.57,15.57,0,0,1,5.44-3.28,19.7,19.7,0,0,1,6.67-1.11,15.75,15.75,0,0,1,7.79,1.59q2.76,1.59,2.76,4.07a4,4,0,0,1-.71,2.38,5.74,5.74,0,0,1-1.64,1.59,17.65,17.65,0,0,0-3-1.53A10,10,0,0,0,130,125.33Z"/><path class="cls-2" d="M173.35,150.73a15.58,15.58,0,0,1-1.88.32,20.07,20.07,0,0,1-2.55.16,11.24,11.24,0,0,1-2.21-.19,3.85,3.85,0,0,1-1.61-.66,2.84,2.84,0,0,1-1-1.32,6.21,6.21,0,0,1-.32-2.22v-8.26h-10.5v12.17a15.46,15.46,0,0,1-1.89.32,19.8,19.8,0,0,1-2.54.16,11.1,11.1,0,0,1-2.21-.19,4,4,0,0,1-1.62-.66,2.89,2.89,0,0,1-1-1.32,6.19,6.19,0,0,1-.33-2.22V118.88c.4-.07,1-.17,1.92-.29a17,17,0,0,1,2.51-.19,11.1,11.1,0,0,1,2.21.19,4,4,0,0,1,1.62.66,3,3,0,0,1,1,1.32,6.26,6.26,0,0,1,.33,2.22v8.47h10.5V118.88c.4-.07,1-.17,1.91-.29a17,17,0,0,1,2.51-.19,11.27,11.27,0,0,1,2.22.19,4,4,0,0,1,1.61.66,2.81,2.81,0,0,1,1,1.32,6.26,6.26,0,0,1,.33,2.22Z"/><path class="cls-3" d="M82.93,174.26c1.95-.79,3.91-1.6,5.89-2.47l-.06,0a245.13,245.13,0,0,0,30.52-16.23,16.85,16.85,0,0,1-5.32-3.42,181.93,181.93,0,0,1-32.7,16A63.18,63.18,0,0,1,65.9,156l-2.69.34,0,.14a65.25,65.25,0,0,0,13.06,13.33c-14,4.26-25.1,4.37-30.64-.66-6.91-6.27-3.7-19.22,7-34.59h0l.37-.51h0q1.21-1.74,2.56-3.5l.06-.09-.09-.08H49c-17.32,21-23.71,39.26-14.42,47.46,8,7.11,26.16,5.18,48.26-3.61Z"/><path class="cls-3" d="M164.42,154.64a4.2,4.2,0,0,1-1.76-.8,64.26,64.26,0,0,1-49.34,22.67A65.92,65.92,0,0,1,94,173.62c-2.21,1-4.4,2.06-6.55,3a60.33,60.33,0,0,0,25.89,5.82c21.18,0,39.92-10.94,51.42-27.75Z"/><circle class="cls-4" cx="129.89" cy="165.26" r="3.96"/><circle class="cls-4" cx="138.21" cy="166.79" r="1.54"/><circle class="cls-4" cx="113.32" cy="168.33" r="1.54"/><circle class="cls-4" cx="111.45" cy="68.22" r="2.34"/><circle class="cls-4" cx="121.9" cy="62.95" r="1.54"/><circle class="cls-4" cx="141.6" cy="160.37" r="2.31"/><circle class="cls-4" cx="90.68" cy="67.93" r="3.96"/><circle class="cls-4" cx="102.4" cy="63.04" r="2.31"/><path class="cls-2" d="M143,53.57h0a12.27,12.27,0,0,0,4.87,4.87h0a2.59,2.59,0,0,1,0,4.55h0A12.24,12.24,0,0,0,143,67.87h0a2.59,2.59,0,0,1-4.55,0h0A12.22,12.22,0,0,0,133.59,63h0a2.59,2.59,0,0,1,0-4.55h0a12.24,12.24,0,0,0,4.86-4.87h0A2.59,2.59,0,0,1,143,53.57Z"/><path class="cls-3" d="M134.69,53a60.38,60.38,0,0,0-21.37-3.9C92.19,49.1,73.48,60,62,76.75c.94,0,1.85,0,2.71.12A64.29,64.29,0,0,1,113.32,55a65.8,65.8,0,0,1,16.32,2A19.12,19.12,0,0,0,134.69,53Z"/><path class="cls-3" d="M152.82,63.68a4.13,4.13,0,0,1-.85.62h0a19.82,19.82,0,0,0-2.45,1.6,62.75,62.75,0,0,1,12,10.41q.59,0,1.17,0c.6,0,1.18,0,1.75.06A65.84,65.84,0,0,0,152.82,63.68Z"/><path class="cls-3" d="M196.91,54.53c-7.67-6.78-24.51-5.33-45.24,2.45l.28.16h0a4,4,0,0,1,2,2.75c14-4.25,25.07-4.35,30.61.67,6.9,6.27,3.69,19.22-7,34.6q1.31,3.8,2.55,7.52c.16.49.33,1,.48,1.46C199.36,82.29,206.52,63,196.91,54.53Z"/></g></g></svg>