<svg xmlns="http://www.w3.org/2000/svg" viewBox="0 0 231.53 231.53"><defs><style>.cls-1{fill:#3e4d96;}.cls-2{fill:#fff;}.cls-3{fill:#de9f30;}.cls-4{fill:#c2c6e2;}</style></defs><title>riojatech-fondo-alliance</title><g id="Capa_2" data-name="Capa 2"><g id="Capa_1-2" data-name="Capa 1"><rect class="cls-1" width="231.53" height="231.53"/><path class="cls-2" d="M62.33,88.08V98.24a15.46,15.46,0,0,1-1.89.32,21.79,21.79,0,0,1-2.54.16,12,12,0,0,1-2.21-.19,3.71,3.71,0,0,1-1.59-.66,3,3,0,0,1-1-1.32,6.28,6.28,0,0,1-.33-2.23V69.4a2.29,2.29,0,0,1,.63-1.72,4.63,4.63,0,0,1,1.72-1,21.08,21.08,0,0,1,4.32-.92,43.43,43.43,0,0,1,5.25-.3q7.55,0,11.37,3.07a10.1,10.1,0,0,1,3.82,8.31,9,9,0,0,1-1.75,5.61A12.46,12.46,0,0,1,74,86.07q2,2.59,3.88,4.87a31,31,0,0,1,3,4.13,5,5,0,0,1-2,2.83,5.68,5.68,0,0,1-3.25,1,7.09,7.09,0,0,1-2.08-.27,5.18,5.18,0,0,1-1.53-.74,6.26,6.26,0,0,1-1.2-1.16,15.11,15.11,0,0,1-1-1.49l-4.59-7.14Zm3.44-7a4.85,4.85,0,0,0,3.28-1,3.76,3.76,0,0,0,1.21-3,3.6,3.6,0,0,0-1.34-3,7,7,0,0,0-4.24-1,11.29,11.29,0,0,0-1.31.06c-.33,0-.69.08-1.09.15V81Z"/><path class="cls-2" d="M92.53,98.24a15.58,15.58,0,0,1-1.88.32,22.07,22.07,0,0,1-2.54.16,12.09,12.09,0,0,1-2.22-.19,3.91,3.91,0,0,1-1.61-.66,2.89,2.89,0,0,1-1-1.32A6.54,6.54,0,0,1,83,94.32V66.38l1.91-.29a18.42,18.42,0,0,1,2.51-.18,12.16,12.16,0,0,1,2.22.18,4.2,4.2,0,0,1,1.61.66,2.87,2.87,0,0,1,1,1.33,6.44,6.44,0,0,1,.32,2.22Z"/><path class="cls-2" d="M94.44,82.37a18.73,18.73,0,0,1,1.34-7.31,15.28,15.28,0,0,1,3.67-5.32,15.8,15.8,0,0,1,5.46-3.25,21.45,21.45,0,0,1,13.62,0A16.12,16.12,0,0,1,124,69.74a14.94,14.94,0,0,1,3.69,5.32,18.73,18.73,0,0,1,1.34,7.31,19.23,19.23,0,0,1-1.31,7.32A14.81,14.81,0,0,1,124.1,95a15.6,15.6,0,0,1-5.49,3.25,20.74,20.74,0,0,1-6.89,1.11,20.45,20.45,0,0,1-6.89-1.13A15.55,15.55,0,0,1,99.36,95a15.21,15.21,0,0,1-3.6-5.35A18.69,18.69,0,0,1,94.44,82.37Zm9.84,0c0,3.21.68,5.6,2,7.19a7.41,7.41,0,0,0,10.88,0c1.34-1.59,2-4,2-7.19s-.67-5.56-2-7.15a6.71,6.71,0,0,0-5.44-2.38,6.89,6.89,0,0,0-5.44,2.35C105,76.77,104.28,79.16,104.28,82.37Z"/><path class="cls-2" d="M135.77,66.38l1.91-.29a18.67,18.67,0,0,1,2.52-.18,12,12,0,0,1,2.21.18,4.25,4.25,0,0,1,1.62.66,2.92,2.92,0,0,1,1,1.33,6.19,6.19,0,0,1,.33,2.22V89.88q0,4.71-2.79,7.06t-8.2,2.36a10.48,10.48,0,0,1-4.59-.85,3.91,3.91,0,0,1-1.83-1.59,4.41,4.41,0,0,1-.58-2.27,5.2,5.2,0,0,1,.3-1.85,3.83,3.83,0,0,1,.74-1.27c.69.14,1.29.23,1.78.29a15.9,15.9,0,0,0,1.61.08,4,4,0,0,0,3.06-1,4.43,4.43,0,0,0,.93-3Z"/><path class="cls-2" d="M155.78,67.34a11.49,11.49,0,0,1,2.81-1,15.39,15.39,0,0,1,3.8-.47,14.13,14.13,0,0,1,4.84.76A4.2,4.2,0,0,1,169.94,69c.65,1.83,1.36,4,2.13,6.4s1.53,4.95,2.29,7.54,1.52,5.15,2.24,7.68,1.37,4.75,1.92,6.69a4.56,4.56,0,0,1-2,1.19,9.61,9.61,0,0,1-3.12.45,9.92,9.92,0,0,1-2.21-.21,4,4,0,0,1-1.48-.64,3.18,3.18,0,0,1-.93-1.11,9.47,9.47,0,0,1-.62-1.58l-1-3.66h-9.89c-.29,1.06-.59,2.16-.88,3.29s-.58,2.22-.87,3.28c-.51.17-1.05.32-1.61.45a10.07,10.07,0,0,1-2,.18,7.31,7.31,0,0,1-4.13-.93,2.92,2.92,0,0,1-1.34-2.56,5.06,5.06,0,0,1,.22-1.48c.14-.5.31-1.08.49-1.75.25-1,.61-2.13,1.07-3.54s.95-2.94,1.5-4.58,1.13-3.33,1.75-5.06,1.2-3.36,1.75-4.89,1-2.9,1.5-4.1S155.52,68,155.78,67.34Zm6.56,6.82q-.76,2.22-1.73,5c-.63,1.82-1.21,3.66-1.72,5.53h6.78q-.76-2.85-1.56-5.58t-1.45-4.9Z"/><path class="cls-2" d="M53.42,111.6a7.34,7.34,0,0,1-1-3.7,3.92,3.92,0,0,1,1-3,3.48,3.48,0,0,1,2.49-.9H79.66a7.09,7.09,0,0,1,.71,1.59,6.77,6.77,0,0,1,.33,2.12,3.91,3.91,0,0,1-1,3,3.49,3.49,0,0,1-2.49.9H71.19v24.45a18.21,18.21,0,0,1-1.89.32,21.89,21.89,0,0,1-2.54.15,12.16,12.16,0,0,1-2.22-.18,4,4,0,0,1-1.61-.66,2.88,2.88,0,0,1-1-1.32,6.28,6.28,0,0,1-.33-2.23V111.6Z"/><path class="cls-2" d="M83.56,109.11a4.77,4.77,0,0,1,1.37-3.59,5.09,5.09,0,0,1,3.72-1.33h18a6.41,6.41,0,0,1,.68,1.54,6.6,6.6,0,0,1,.3,2,3.81,3.81,0,0,1-.9,2.86,3.34,3.34,0,0,1-2.38.84H92.86v4.92h12.3a6.51,6.51,0,0,1,.68,1.51,6.43,6.43,0,0,1,.3,2,3.86,3.86,0,0,1-.87,2.85,3.23,3.23,0,0,1-2.35.85H92.86v5.56h14a6.32,6.32,0,0,1,.68,1.53,6.7,6.7,0,0,1,.3,2,3.92,3.92,0,0,1-.9,2.89,3.27,3.27,0,0,1-2.38.87h-16a5.13,5.13,0,0,1-3.72-1.32,4.79,4.79,0,0,1-1.37-3.6Z"/><path class="cls-2" d="M130,110.65a8.22,8.22,0,0,0-6.45,2.49c-1.5,1.65-2.24,4-2.24,7s.82,5.44,2.48,7.09a9,9,0,0,0,6.7,2.49,10.89,10.89,0,0,0,3.8-.58,27.71,27.71,0,0,0,3-1.32,5.26,5.26,0,0,1,1.45,1.77,5.38,5.38,0,0,1,.52,2.41c0,1.44-.83,2.67-2.49,3.67s-4.18,1.51-7.57,1.51a23.05,23.05,0,0,1-6.89-1,15.38,15.38,0,0,1-5.63-3.1,14.67,14.67,0,0,1-3.8-5.29,19,19,0,0,1-1.39-7.65,18.31,18.31,0,0,1,1.34-7.27,15.16,15.16,0,0,1,9.1-8.6,19.7,19.7,0,0,1,6.67-1.11,15.87,15.87,0,0,1,7.79,1.58q2.76,1.59,2.76,4.08a4,4,0,0,1-.71,2.38,5.88,5.88,0,0,1-1.64,1.59,18.44,18.44,0,0,0-3-1.54A10.21,10.21,0,0,0,130,110.65Z"/><path class="cls-2" d="M173.35,136.05a17.91,17.91,0,0,1-1.88.32,22.06,22.06,0,0,1-2.55.15,12.12,12.12,0,0,1-2.21-.18,3.85,3.85,0,0,1-1.61-.66,2.89,2.89,0,0,1-1-1.32,6.31,6.31,0,0,1-.32-2.23v-8.25h-10.5v12.17a17.73,17.73,0,0,1-1.89.32,21.76,21.76,0,0,1-2.54.15,12,12,0,0,1-2.21-.18,4,4,0,0,1-1.62-.66,3,3,0,0,1-1-1.32,6.28,6.28,0,0,1-.33-2.23V104.19l1.92-.29a18.42,18.42,0,0,1,2.51-.18,12,12,0,0,1,2.21.18,4.25,4.25,0,0,1,1.62.66,2.92,2.92,0,0,1,1,1.33,6.19,6.19,0,0,1,.33,2.22v8.47h10.5V104.19l1.91-.29a18.42,18.42,0,0,1,2.51-.18,12.16,12.16,0,0,1,2.22.18,4.27,4.27,0,0,1,1.61.66,2.79,2.79,0,0,1,1,1.33,6.19,6.19,0,0,1,.33,2.22Z"/><path class="cls-3" d="M82.93,159.58c1.95-.79,3.91-1.6,5.89-2.47l-.06,0a246.6,246.6,0,0,0,30.52-16.24,16.51,16.51,0,0,1-5.32-3.42,180.6,180.6,0,0,1-32.7,16A63.14,63.14,0,0,1,65.9,141.33l-2.69.33,0,.14a65,65,0,0,0,13.06,13.33c-14,4.26-25.1,4.38-30.64-.65-6.91-6.27-3.7-19.22,7-34.59h0l.37-.51h0q1.21-1.73,2.56-3.5l.06-.09-.09-.08H49c-17.32,21-23.71,39.26-14.42,47.47,8,7.1,26.16,5.18,48.26-3.61Z"/><path class="cls-3" d="M164.42,140a4.08,4.08,0,0,1-1.76-.8,64.23,64.23,0,0,1-49.34,22.67A65.59,65.59,0,0,1,94,158.93c-2.21,1.06-4.4,2.06-6.55,3a60.47,60.47,0,0,0,25.89,5.82c21.18,0,39.92-10.95,51.42-27.76A1.69,1.69,0,0,1,164.42,140Z"/><circle class="cls-4" cx="129.89" cy="150.57" r="3.96"/><circle class="cls-4" cx="138.21" cy="152.1" r="1.54"/><circle class="cls-4" cx="113.32" cy="153.65" r="1.54"/><circle class="cls-4" cx="111.45" cy="53.53" r="2.34"/><circle class="cls-4" cx="121.9" cy="48.27" r="1.54"/><circle class="cls-4" cx="141.6" cy="145.69" r="2.31"/><circle class="cls-4" cx="90.68" cy="53.24" r="3.96"/><circle class="cls-4" cx="102.4" cy="48.35" r="2.31"/><path class="cls-4" d="M63.85,203.92H56l-1.77,4.94H51.61L58.81,190H61l7.21,18.86H65.65Zm-7.15-2h6.41l-3.21-8.82Z"/><path class="cls-4" d="M75.23,206.83h8.94v2H72.73V190h2.5Z"/><path class="cls-4" d="M91.5,206.83h8.93v2H89V190h2.5Z"/><path class="cls-4" d="M107.93,208.86h-2.49V190h2.49Z"/><path class="cls-4" d="M125.11,203.92h-7.9l-1.77,4.94h-2.57l7.2-18.86h2.18l7.21,18.86h-2.55Zm-7.15-2h6.41l-3.21-8.82Z"/><path class="cls-4" d="M148.49,208.86H146l-9.5-14.53v14.53H134V190h2.5L146,204.6V190h2.48Z"/><path class="cls-4" d="M168.77,202.88a7,7,0,0,1-2.21,4.61,7.22,7.22,0,0,1-4.94,1.63,6.64,6.64,0,0,1-5.36-2.4,9.65,9.65,0,0,1-2-6.41V198.5a10.69,10.69,0,0,1,.94-4.63,6.94,6.94,0,0,1,2.66-3.06,7.44,7.44,0,0,1,4-1.07,6.82,6.82,0,0,1,4.82,1.68,7.06,7.06,0,0,1,2.11,4.64h-2.5a5.41,5.41,0,0,0-1.41-3.27,4.23,4.23,0,0,0-3-1,4.44,4.44,0,0,0-3.74,1.77,8.09,8.09,0,0,0-1.35,5v1.83a8.29,8.29,0,0,0,1.28,4.89,4.13,4.13,0,0,0,3.59,1.81,4.82,4.82,0,0,0,3.18-.93,5.21,5.21,0,0,0,1.47-3.27Z"/><path class="cls-4" d="M184.81,200.14h-8.17v6.69h9.49v2h-12V190H186v2h-9.36v6.08h8.17Z"/><path class="cls-2" d="M143,38.89h0a12.24,12.24,0,0,0,4.87,4.86h0a2.59,2.59,0,0,1,0,4.55h0A12.24,12.24,0,0,0,143,53.19h0a2.59,2.59,0,0,1-4.55,0h0a12.22,12.22,0,0,0-4.86-4.86h0a2.59,2.59,0,0,1,0-4.55h0a12.22,12.22,0,0,0,4.86-4.86h0A2.59,2.59,0,0,1,143,38.89Z"/><path class="cls-3" d="M134.69,38.31a60.38,60.38,0,0,0-21.37-3.9C92.19,34.41,73.48,45.32,62,62.07c.94,0,1.85,0,2.71.11a64.28,64.28,0,0,1,48.63-21.84,65.8,65.8,0,0,1,16.32,2A19.16,19.16,0,0,0,134.69,38.31Z"/><path class="cls-3" d="M152.82,49a4.53,4.53,0,0,1-.85.62h0a19.82,19.82,0,0,0-2.45,1.6,62.75,62.75,0,0,1,12,10.41c.39,0,.78,0,1.17,0,.6,0,1.18,0,1.75.06A65.78,65.78,0,0,0,152.82,49Z"/><path class="cls-3" d="M196.91,39.84c-7.67-6.77-24.51-5.33-45.24,2.45l.28.17h0a4,4,0,0,1,2,2.75c14-4.25,25.07-4.36,30.61.67,6.9,6.27,3.69,19.22-7,34.59Q179,84.29,180.2,88c.16.5.33,1,.48,1.46C199.36,67.6,206.52,48.33,196.91,39.84Z"/></g></g></svg>