<svg xmlns="http://www.w3.org/2000/svg" viewBox="0 0 170.81 133.34"><defs><style>.cls-1{fill:#3e4d96;}.cls-2{fill:#de9f30;}.cls-3{fill:#c2c6e2;}</style></defs><title>riojatech</title><g id="Capa_2" data-name="Capa 2"><g id="Capa_1-2" data-name="Capa 1"><path class="cls-1" d="M32,53.67V63.83a15.92,15.92,0,0,1-1.89.31,19.8,19.8,0,0,1-2.54.16,12,12,0,0,1-2.21-.18,4,4,0,0,1-1.59-.66,2.87,2.87,0,0,1-.95-1.33,6.19,6.19,0,0,1-.33-2.22V35a2.27,2.27,0,0,1,.63-1.72,4.37,4.37,0,0,1,1.72-1,21.05,21.05,0,0,1,4.32-.93,45.65,45.65,0,0,1,5.25-.29q7.53,0,11.37,3.07a10.1,10.1,0,0,1,3.82,8.31,9.06,9.06,0,0,1-1.75,5.61,12.46,12.46,0,0,1-4.15,3.6c1.31,1.72,2.6,3.35,3.88,4.86a31.65,31.65,0,0,1,3,4.13,5,5,0,0,1-2,2.83,5.68,5.68,0,0,1-3.25,1,7.47,7.47,0,0,1-2.08-.26,5.44,5.44,0,0,1-1.53-.74,6,6,0,0,1-1.2-1.17,15,15,0,0,1-1-1.48l-4.59-7.14Zm3.44-7a4.9,4.9,0,0,0,3.28-1,3.79,3.79,0,0,0,1.21-3.05,3.61,3.61,0,0,0-1.34-3,7,7,0,0,0-4.24-1c-.55,0-1,0-1.31.05s-.69.09-1.09.16v7.94Z"/><path class="cls-1" d="M62.17,63.83a16,16,0,0,1-1.88.31,20.07,20.07,0,0,1-2.55.16,12.12,12.12,0,0,1-2.21-.18,4.2,4.2,0,0,1-1.61-.66,2.87,2.87,0,0,1-1-1.33,6.44,6.44,0,0,1-.32-2.22V32c.4-.07,1-.17,1.91-.29A18.48,18.48,0,0,1,57,31.49a12.09,12.09,0,0,1,2.22.19,3.91,3.91,0,0,1,1.61.66,2.81,2.81,0,0,1,1,1.32,6.28,6.28,0,0,1,.33,2.23Z"/><path class="cls-1" d="M64.08,48a18.71,18.71,0,0,1,1.34-7.3,15.19,15.19,0,0,1,3.67-5.32,15.56,15.56,0,0,1,5.46-3.25,21.23,21.23,0,0,1,13.61,0,15.91,15.91,0,0,1,5.5,3.25,14.85,14.85,0,0,1,3.69,5.32A18.71,18.71,0,0,1,98.69,48a19.28,19.28,0,0,1-1.31,7.33,14.77,14.77,0,0,1-3.64,5.34,15.62,15.62,0,0,1-5.49,3.26A20.74,20.74,0,0,1,81.36,65a20.2,20.2,0,0,1-6.89-1.14A15.59,15.59,0,0,1,69,60.55a15.21,15.21,0,0,1-3.6-5.35A18.75,18.75,0,0,1,64.08,48Zm9.84,0q0,4.81,2,7.2a6.72,6.72,0,0,0,5.41,2.38,6.81,6.81,0,0,0,5.47-2.38c1.34-1.59,2-4,2-7.2s-.67-5.56-2-7.14a6.71,6.71,0,0,0-5.44-2.38A6.86,6.86,0,0,0,76,40.78C74.61,42.35,73.92,44.74,73.92,48Z"/><path class="cls-1" d="M105.41,32c.4-.07,1-.17,1.91-.29a18.74,18.74,0,0,1,2.52-.19,12,12,0,0,1,2.21.19,4,4,0,0,1,1.62.66,3,3,0,0,1,1,1.32,6.28,6.28,0,0,1,.33,2.23V55.47q0,4.71-2.79,7.06T104,64.88A10.63,10.63,0,0,1,99.4,64a3.91,3.91,0,0,1-1.83-1.59A4.44,4.44,0,0,1,97,60.17a5.24,5.24,0,0,1,.3-1.85A3.94,3.94,0,0,1,98,57.05c.69.14,1.29.24,1.78.29a13.44,13.44,0,0,0,1.61.08,3.94,3.94,0,0,0,3.06-1,4.41,4.41,0,0,0,.93-3Z"/><path class="cls-1" d="M125.42,32.92a11.55,11.55,0,0,1,2.81-1,15.34,15.34,0,0,1,3.8-.48,14.12,14.12,0,0,1,4.84.77,4.14,4.14,0,0,1,2.7,2.41q1,2.75,2.14,6.4c.76,2.43,1.53,4.95,2.29,7.54s1.51,5.15,2.24,7.67,1.37,4.76,1.92,6.7a4.62,4.62,0,0,1-2,1.19,9.65,9.65,0,0,1-3.12.45,9.92,9.92,0,0,1-2.21-.21,4.3,4.3,0,0,1-1.48-.64,3.18,3.18,0,0,1-.93-1.11,10,10,0,0,1-.62-1.59l-1-3.65H127c-.3,1.06-.59,2.15-.88,3.28s-.58,2.22-.87,3.28a12.77,12.77,0,0,1-1.62.45,9.86,9.86,0,0,1-2,.19,7.3,7.3,0,0,1-4.12-.93,2.94,2.94,0,0,1-1.34-2.57,5.11,5.11,0,0,1,.22-1.48c.14-.49.31-1.07.49-1.74.25-1,.61-2.14,1.06-3.55s1-2.94,1.51-4.58,1.13-3.32,1.75-5l1.75-4.89q.81-2.31,1.5-4.11C124.81,34.48,125.16,33.56,125.42,32.92ZM132,39.75q-.76,2.22-1.73,5c-.63,1.81-1.21,3.66-1.72,5.53h6.78q-.76-2.86-1.56-5.59t-1.45-4.89Z"/><path class="cls-1" d="M23.06,77.19a6.66,6.66,0,0,1-.71-1.59A6.77,6.77,0,0,1,22,73.48a3.91,3.91,0,0,1,1-3,3.45,3.45,0,0,1,2.48-.9H49.3A7.09,7.09,0,0,1,50,71.21a6.7,6.7,0,0,1,.33,2.11,3.92,3.92,0,0,1-1,3,3.49,3.49,0,0,1-2.49.9H40.83v24.44a14,14,0,0,1-1.89.32,19.91,19.91,0,0,1-2.54.16,12.16,12.16,0,0,1-2.22-.18,4.12,4.12,0,0,1-1.61-.67,2.78,2.78,0,0,1-1-1.32,6.19,6.19,0,0,1-.33-2.22V77.19Z"/><path class="cls-1" d="M53.2,74.7a4.78,4.78,0,0,1,1.37-3.6,5.13,5.13,0,0,1,3.72-1.32h18A6.5,6.5,0,0,1,77,71.31a6.7,6.7,0,0,1,.3,2,3.78,3.78,0,0,1-.9,2.86A3.3,3.3,0,0,1,74,77H62.5V82H74.8a6.51,6.51,0,0,1,.68,1.51,6.41,6.41,0,0,1,.3,2,3.88,3.88,0,0,1-.87,2.86,3.27,3.27,0,0,1-2.35.85H62.5V94.7h14a6.41,6.41,0,0,1,.68,1.54,6.6,6.6,0,0,1,.3,2,3.88,3.88,0,0,1-.9,2.88,3.3,3.3,0,0,1-2.38.88h-16a5.13,5.13,0,0,1-3.72-1.33,4.78,4.78,0,0,1-1.37-3.6Z"/><path class="cls-1" d="M99.59,76.23a8.22,8.22,0,0,0-6.45,2.49c-1.5,1.66-2.24,4-2.24,7s.82,5.43,2.48,7.09a9,9,0,0,0,6.7,2.49,11.13,11.13,0,0,0,3.8-.58,25.91,25.91,0,0,0,3-1.33,5.4,5.4,0,0,1,1.45,1.78,5.34,5.34,0,0,1,.52,2.4q0,2.17-2.49,3.68t-7.57,1.51a23.05,23.05,0,0,1-6.89-1,15.51,15.51,0,0,1-5.63-3.09,14.63,14.63,0,0,1-3.8-5.29,19.1,19.1,0,0,1-1.4-7.65,18.54,18.54,0,0,1,1.34-7.28,15.29,15.29,0,0,1,9.11-8.6,19.7,19.7,0,0,1,6.67-1.11A15.75,15.75,0,0,1,106,70.36q2.76,1.59,2.76,4.08a4.06,4.06,0,0,1-.71,2.38,5.7,5.7,0,0,1-1.64,1.58,17.65,17.65,0,0,0-3-1.53A10.21,10.21,0,0,0,99.59,76.23Z"/><path class="cls-1" d="M143,101.63a13.79,13.79,0,0,1-1.88.32,20.07,20.07,0,0,1-2.55.16,12,12,0,0,1-2.21-.18,4,4,0,0,1-1.61-.67,2.79,2.79,0,0,1-1-1.32,6.19,6.19,0,0,1-.33-2.22V89.46H122.93v12.17A13.71,13.71,0,0,1,121,102a19.8,19.8,0,0,1-2.54.16,12,12,0,0,1-2.21-.18,4.1,4.1,0,0,1-1.62-.67,2.84,2.84,0,0,1-1-1.32,6.19,6.19,0,0,1-.33-2.22V69.78c.4-.07,1-.17,1.92-.29a17,17,0,0,1,2.51-.19,11.1,11.1,0,0,1,2.21.19,4,4,0,0,1,1.62.66,3,3,0,0,1,1,1.32,6.26,6.26,0,0,1,.33,2.22v8.47h10.49V69.78c.4-.07,1-.17,1.92-.29a17,17,0,0,1,2.51-.19,11.27,11.27,0,0,1,2.22.19,4,4,0,0,1,1.61.66,2.88,2.88,0,0,1,1,1.32,6.26,6.26,0,0,1,.33,2.22Z"/><path class="cls-2" d="M52.56,125.16c2-.78,3.92-1.6,5.9-2.46l-.06,0a245.13,245.13,0,0,0,30.52-16.23A16.74,16.74,0,0,1,83.6,103a181.93,181.93,0,0,1-32.7,16,63.18,63.18,0,0,1-15.36-12.15l-2.69.34,0,.14a65.25,65.25,0,0,0,13.06,13.33c-14,4.26-25.1,4.37-30.64-.66-6.91-6.27-3.7-19.22,7-34.59h0l.37-.51h0c.81-1.16,1.66-2.32,2.56-3.5l.06-.09-.09-.08H18.68C1.36,102.24-5,120.54,4.26,128.75c8,7.1,26.15,5.17,48.26-3.61Z"/><path class="cls-2" d="M134.06,105.54a4.2,4.2,0,0,1-1.76-.8A64.26,64.26,0,0,1,83,127.41a65.92,65.92,0,0,1-19.34-2.89c-2.21,1.06-4.4,2.06-6.55,3A60.3,60.3,0,0,0,83,133.34c21.18,0,39.92-11,51.42-27.76Z"/><circle class="cls-3" cx="99.52" cy="116.16" r="3.96"/><circle class="cls-3" cx="107.85" cy="117.69" r="1.54"/><circle class="cls-3" cx="82.96" cy="119.23" r="1.54"/><circle class="cls-3" cx="81.09" cy="19.12" r="2.34"/><circle class="cls-3" cx="91.54" cy="13.85" r="1.54"/><circle class="cls-3" cx="111.24" cy="111.27" r="2.31"/><circle class="cls-3" cx="60.32" cy="18.83" r="3.96"/><circle class="cls-3" cx="72.03" cy="13.94" r="2.31"/><path class="cls-1" d="M112.65,4.48h0a12.28,12.28,0,0,0,4.86,4.86h0a2.61,2.61,0,0,1,0,4.56h0a12.28,12.28,0,0,0-4.86,4.86h0a2.6,2.6,0,0,1-4.56,0h0a12.22,12.22,0,0,0-4.86-4.86h0a2.6,2.6,0,0,1,0-4.56h0a12.22,12.22,0,0,0,4.86-4.86h0A2.6,2.6,0,0,1,112.65,4.48Z"/><path class="cls-2" d="M104.33,3.9A60.38,60.38,0,0,0,83,0C61.83,0,43.12,10.9,31.62,27.65c.94,0,1.85,0,2.71.12A64.29,64.29,0,0,1,83,5.92,65.39,65.39,0,0,1,99.28,8,19.36,19.36,0,0,0,104.33,3.9Z"/><path class="cls-2" d="M122.46,14.58a4.17,4.17,0,0,1-.85.63h0a19.82,19.82,0,0,0-2.45,1.6,63.1,63.1,0,0,1,12,10.41q.58,0,1.17,0,.9,0,1.74.06A65.47,65.47,0,0,0,122.46,14.58Z"/><path class="cls-2" d="M166.55,5.43C158.88-1.35,142,.1,121.31,7.88a2.61,2.61,0,0,1,.28.17h0a4,4,0,0,1,2,2.76c14-4.26,25.07-4.36,30.6.66,6.91,6.27,3.7,19.23-7,34.6q1.31,3.8,2.55,7.52c.16.5.32,1,.48,1.46C169,33.19,176.16,13.92,166.55,5.43Z"/></g></g></svg>